<?xml version="1.0" encoding="utf-8"?>
<!-- Generator: Adobe Illustrator 24.0.0, SVG Export Plug-In . SVG Version: 6.00 Build 0)  -->
<svg version="1.1" id="Calque_1" xmlns="http://www.w3.org/2000/svg" xmlns:xlink="http://www.w3.org/1999/xlink" x="0px" y="0px"
	 viewBox="0 0 150 150" style="enable-background:new 0 0 150 150;" xml:space="preserve">
<style type="text/css">
	.st0{fill:#FFFFFF;stroke:#FFFFFF;stroke-miterlimit:10;}
</style>
<g transform="matrix(1.4915682,0,0,1.4915682,-148.89472,1.1481795)">
	<path class="st0" d="M126.2,35.9V25.7h25v-6.4h-24.3c1.4-3.6,4.9-6.5,7.2-8.1c1.7-1.2,3.5-2.2,5.1-2.9v8.3h6.4V0
		c-6.1,0-23,7.6-25.4,19.6c-12,2.4-19.5,19.2-19.5,25.3l45,0V28.4h-6.4v10.2h-30.3c0.7-1.6,1.7-3.3,2.9-5c1.6-2.3,4.4-5.8,8.1-7.2
		v9.5L126.2,35.9"/>
	<path class="st0" d="M163.2,25.6h10.2v24.9h6.4V26.3c3.6,1.4,6.5,4.9,8.1,7.2c1.2,1.7,2.2,3.5,2.9,5.1h-8.3V45h16.6
		c0-6.1-7.6-23-19.6-25.4C177,7.5,160.3,0,154.1,0l0,45h16.6v-6.4h-10.2V8.3c1.6,0.8,3.3,1.7,5,2.9c2.3,1.6,5.8,4.5,7.2,8.1h-9.5
		L163.2,25.6"/>
	<path class="st0" d="M173.7,62.9V73h-24.9v6.4h24.3c-1.4,3.6-4.9,6.5-7.2,8.1c-1.7,1.2-3.5,2.2-5.1,2.9v-8.3h-6.4v16.6
		c6.1,0,23-7.6,25.4-19.6c12-2.5,19.5-19.2,19.5-25.3l-45,0v16.6h6.4V60.2h30.3c-0.7,1.6-1.7,3.3-2.9,5c-1.6,2.3-4.5,5.8-8.1,7.2
		v-9.5L173.7,62.9"/>
	<path class="st0" d="M136.5,73.1h-10.2v-25h-6.4v24.3c-3.6-1.4-6.5-4.9-8.1-7.2c-1.2-1.7-2.2-3.5-2.9-5.1h8.3v-6.4h-16.6
		c0,6.1,7.6,23,19.6,25.4c2.5,12,19.2,19.6,25.3,19.6l0-45H129v6.4h10.2v30.3c-1.6-0.7-3.3-1.7-5-2.9c-2.3-1.6-5.8-4.5-7.2-8.1h9.5
		L136.5,73.1"/>
</g>
</svg>
